Coordinates
version=1
nRows=14
nColumns=42
inDegrees=yes

Units are S.I. units (second, meters, Newtons, ...)
If the header above contains a line with 'inDegrees', this indicates whether rotational values are in degrees (yes) or radians (no).

endheader
time	pelvis_tilt	pelvis_list	pelvis_rotation	pelvis_tx	pelvis_ty	pelvis_tz	hip_flexion_r	hip_adduction_r	hip_rotation_r	knee_angle_r	knee_adduction_r	knee_angle_r_beta	ankle_angle_r	subtalar_angle_r	mtp_angle_r	hip_flexion_l	hip_adduction_l	hip_rotation_l	knee_angle_l	knee_adduction_l	knee_angle_l_beta	ankle_angle_l	subtalar_angle_l	mtp_angle_l	lumbar_extension	lumbar_bending	lumbar_rotation	arm_flex_r	arm_add_r	arm_rot_r	elbow_flex_r	pro_sup_r	wrist_flex_r	wrist_dev_r	arm_flex_l	arm_add_l	arm_rot_l	elbow_flex_l	pro_sup_l	wrist_flex_l	wrist_dev_l
      1.65000000	      7.40013582	     -0.10494364	     -0.64482251	      0.94511560	      1.00133501	     -0.22661723	     19.98838684	     -5.41101940	     -7.46000590	     23.29288035	      7.20821686	      0.40653745	      1.03945955	    -11.79462574	     -7.50900712	    -18.51991743	     -2.81764905	     -2.00899603	      7.86979808	     11.56083894	      0.13735389	     14.74034935	      1.09687887	     -7.50900712	    -19.67934933	     -0.29797018	     -4.51319388	     -7.73591707	     -5.89705516	    -21.45264611	      8.51063856	     90.00000001	      0.00000000	      0.00000000	     17.75782592	    -19.20531054	     -6.56662177	     41.57031933	     90.00000001	      0.00000000	      0.00000000
      1.66000000	      7.30317206	     -0.07888365	     -0.36603587	      0.95927950	      0.99827168	     -0.22657418	     19.95063790	     -5.39011484	     -8.76955390	     19.91322923	      7.25080912	      0.34755141	      1.43117725	    -10.03194798	     -7.50861425	    -19.21760800	     -2.91501783	     -2.07868635	      8.07804469	     11.57581704	      0.14098848	     15.39724271	      1.67842110	     -7.50861425	    -19.55025701	     -0.13814616	     -4.82507186	     -8.49719589	     -5.72567604	    -21.68999154	      8.47355729	     90.00000001	      0.00000000	      0.00000000	     18.37628528	    -19.74825432	     -5.97232171	     42.67114229	     90.00000001	      0.00000000	      0.00000000
      1.67000000	      7.18675912	      0.08138448	     -0.07600846	      0.97352954	      0.99511233	     -0.22671604	     19.97946778	     -5.59736736	     -9.92432176	     16.92560053	      7.55156738	      0.29540746	      1.91121881	     -8.38300637	     -7.50831318	    -19.85023795	     -2.83612186	     -2.07864886	      8.37231989	     11.51579436	      0.14612455	     16.00647218	      2.13692011	     -7.50831318	    -19.39673046	     -0.10331127	     -5.18659346	     -9.20709312	     -5.57365097	    -21.86033714	      8.43246794	     90.00000001	      0.00000000	      0.00000000	     18.92144384	    -20.27642602	     -5.38983909	     43.78200704	     90.00000001	      0.00000000	      0.00000000
      1.68000000	      6.84769239	      0.36739023	      0.11666571	      0.98777842	      0.99163940	     -0.22680911	     20.35433610	     -5.95724209	    -10.79738955	     14.44236602	      8.03752512	      0.25206684	      2.13234409	     -7.06188381	     -7.50816253	    -20.21167860	     -2.58487556	     -1.94927384	      8.72170234	     11.42996127	      0.15222242	     16.50244976	      2.38247986	     -7.50816253	    -18.99650359	     -0.22987067	     -5.50839063	     -9.90272580	     -5.44920146	    -21.99582605	      8.53397244	     90.00000001	      0.00000000	      0.00000000	     19.45089969	    -20.70702696	     -5.04262755	     44.68299853	     90.00000001	      0.00000000	      0.00000000
      1.69000000	      6.86310633	      0.42623544	      0.47951989	      1.00237927	      0.98866533	     -0.22685880	     20.27200823	     -6.08780184	    -11.83234273	     12.30318982	      8.47469293	      0.21473117	      2.54960253	     -5.59104351	     -7.50795745	    -20.97035029	     -2.70895595	     -1.85571602	      9.07775417	     11.44720350	      0.15843670	     16.97131235	      2.79378722	     -7.50795745	    -18.98699187	     -0.07560051	     -5.89766757	    -10.49252996	     -5.33798167	    -22.26213572	      8.51456166	     90.00000001	      0.00000000	      0.00000000	     19.82816176	    -21.22774863	     -4.52759594	     45.79634247	     90.00000001	      0.00000000	      0.00000000
      1.70000000	      6.83550151	      0.29774647	      0.81946189	      1.01742327	      0.98569342	     -0.22669711	     20.32818866	     -6.00125542	    -13.05412521	     10.83370987	      8.82357123	      0.18908391	      3.01931872	     -3.70905392	     -7.50748766	    -21.66523180	     -3.06595137	     -1.92697236	      9.56164212	     11.47681085	      0.16688214	     17.47385834	      3.49129741	     -7.50748766	    -18.87018495	      0.25816601	     -6.19486742	    -10.99575173	     -5.27240233	    -22.89517158	      8.43992028	     90.00000001	      0.00000000	      0.00000000	     20.12714137	    -21.60842661	     -4.17336538	     46.71205860	     90.00000001	      0.00000000	      0.00000000
      1.71000000	      6.59075287	      0.45428968	      1.07429350	      1.03223901	      0.98260470	     -0.22684893	     20.69192886	     -6.21546277	    -13.33118231	      9.78953572	      9.26994546	      0.17085963	      3.17790873	     -3.00679592	     -7.50737624	    -22.05135536	     -2.99464332	     -1.66076683	     10.10427918	     11.35756608	      0.17635294	     17.72707628	      3.57523074	     -7.50737624	    -18.55523215	      0.30454281	     -6.52685620	    -11.48653349	     -5.24553867	    -23.03541428	      8.51578464	     90.00000001	      0.00000000	      0.00000000	     20.36345394	    -21.92049829	     -3.97886472	     47.49304658	     90.00000001	      0.00000000	      0.00000000
      1.72000000	      6.43350760	      0.46858499	      1.31055938	      1.04731037	      0.97978548	     -0.22676704	     21.00874526	     -6.20394514	    -13.46660408	      9.28068608	      9.51292511	      0.16197853	      3.27337035	     -2.55753178	     -7.50729181	    -22.52531423	     -3.11230324	     -1.35006110	     10.68030892	     11.29140728	      0.18640656	     17.83295782	      3.64619058	     -7.50729181	    -18.31915734	      0.48141509	     -6.75780430	    -11.91988615	     -5.22132948	    -23.17960749	      8.54333013	     90.00000001	      0.00000000	      0.00000000	     20.53178857	    -22.14895269	     -3.84547703	     48.21968382	     90.00000001	      0.00000000	      0.00000000
      1.73000000	      6.30161738	      0.42668844	      1.48339941	      1.06246723	      0.97720164	     -0.22664130	     21.37003191	     -6.05678048	    -13.30772974	      9.28731624	      9.56306749	      0.16209425	      3.25326505	     -2.31428160	     -7.50723586	    -22.99728042	     -3.26528119	     -0.94060063	     11.30103319	     11.21890326	      0.19724024	     17.77984330	      3.72217677	     -7.50723586	    -18.10886819	      0.71923189	     -6.91734215	    -12.26028171	     -5.27786627	    -23.26928904	      8.60798595	     90.00000001	      0.00000000	      0.00000000	     20.68534776	    -22.29131227	     -3.81536238	     48.72284212	     90.00000001	      0.00000000	      0.00000000
      1.74000000	      6.18096819	      0.34679555	      1.69016945	      1.07805689	      0.97487186	     -0.22650603	     21.63463328	     -5.86602366	    -12.94107328	      9.56316600	      9.55081909	      0.16690873	      3.13915618	     -2.14544875	     -7.50719321	    -23.47798240	     -3.47232356	     -0.50453461	     11.94198625	     11.12286547	      0.20842698	     17.66260477	      3.77129644	     -7.50719321	    -17.86286911	      1.01120298	     -7.11397382	    -12.55052236	     -5.32618143	    -23.34728597	      8.68226146	     90.00000001	      0.00000000	      0.00000000	     20.67050507	    -22.41326139	     -3.80909565	     49.07792895	     90.00000001	      0.00000000	      0.00000000
      1.75000000	      6.10358482	     -0.18547039	      2.23043571	      1.09369263	      0.97287235	     -0.22598154	     21.81472074	     -5.19546460	    -13.11731563	     10.22211235	      9.26425236	      0.17840952	      2.62230868	     -2.41421466	     -7.50705689	    -23.68431147	     -4.47797040	     -0.15804738	     13.20389332	     11.29401610	      0.23045141	     17.42170026	      3.49903836	     -7.50705689	    -17.68989937	      1.78636758	     -7.61484296	    -12.55091289	     -5.41188196	    -23.75075082	      8.51825997	     90.00000001	      0.00000000	      0.00000000	     20.11961787	    -22.75276936	     -3.78118701	     50.33711809	     90.00000001	      0.00000000	      0.00000000
      1.76000000	      5.97034101	     -0.77311957	      2.59230316	      1.10958056	      0.97113553	     -0.22537314	     22.01558635	     -4.40567612	    -12.69663601	     11.00747169	      8.98986959	      0.19211662	      1.65840169	     -3.26769544	     -7.50675203	    -23.85214894	     -5.44815714	      0.10054621	     14.42055089	     11.42791064	      0.25168609	     17.16879810	      3.73808698	     -7.50675203	    -17.40473010	      2.61402667	     -7.83918194	    -12.44257260	     -5.53616222	    -24.67152626	      8.19021076	     90.00000001	      0.00000000	      0.00000000	     19.80359791	    -22.77235538	     -3.97453492	     50.73124070	     90.00000001	      0.00000000	      0.00000000
      1.77000000	      5.96746748	     -1.08132317	      2.74408721	      1.12552987	      0.96993030	     -0.22494284	     22.23921032	     -3.99661807	    -12.28588698	     12.40733401	      8.84433083	      0.21654883	      0.64638565	     -3.69385662	     -7.50666545	    -24.18014649	     -5.93100238	      0.43724473	     15.55904540	     11.39284347	      0.27155657	     16.34689685	      3.59178490	     -7.50666545	    -17.29940263	      3.13784619	     -7.90372985	    -12.45927887	     -5.68837274	    -24.76506363	      8.25715103	     90.00000001	      0.00000000	      0.00000000	     19.45539356	    -22.69829847	     -4.17119000	     51.03963219	     90.00000001	      0.00000000	      0.00000000
      1.78000000	      5.85885656	     -1.59014596	      2.94237512	      1.14173330	      0.96901544	     -0.22441598	     22.57311967	     -3.42001679	    -12.06409211	     14.02855653	      8.65464437	      0.24484450	     -0.77552060	     -4.52843406	     -7.50656029	    -24.24969484	     -6.64457281	      0.67586334	     16.96481312	     11.34935525	      0.29609185	     15.29018561	      3.17423392	     -7.50656029	    -17.03449542	      3.87738124	     -8.02043596	    -12.34932621	     -5.88232571	    -24.88323091	      8.22579108	     90.00000001	      0.00000000	      0.00000000	     18.88207581	    -22.57581230	     -4.48568620	     51.28541933	     90.00000001	      0.00000000	      0.00000000
